<svg viewBox="0 0 1000 1000" xmlns="http://www.w3.org/2000/svg"><defs><linearGradient id="c" gradientTransform="rotate(-45 .5 .5)"><stop offset="0%" stop-color="#00DBDE"/><stop offset="100%" stop-color="#FC00FF"/></linearGradient><clipPath id="b"><path fill="currentColor" d="M840 636.5q-14 136.5-149.5 156t-258 28q-122.5 8.5-225-84t-46.5-216Q217 397 255 269t168.5-102.5Q554 192 650.5 242t150 154Q854 500 840 636.5Z"/></clipPath><filter id="a" x="-50vw" y="-50vh" width="100vw" height="100vh"><feFlood flood-color="#fff" result="neutral-gray"/><feTurbulence type="fractalNoise" baseFrequency="2.5" numOctaves="100" stitchTiles="stitch" result="noise"/><feColorMatrix in="noise" type="saturate" values="0" result="destaturatedNoise"/><feComponentTransfer in="desaturatedNoise" result="theNoise"><feFuncA type="table" tableValues="0 0 0.3 0"/></feComponentTransfer><feBlend in="SourceGraphic" in2="theNoise" mode="soft-light" result="noisy-image"/></filter></defs><g filter="url(#a)" clip-path="url(#b)"><path fill="url(#c)" d="M840 636.5q-14 136.5-149.5 156t-258 28q-122.5 8.5-225-84t-46.5-216Q217 397 255 269t168.5-102.5Q554 192 650.5 242t150 154Q854 500 840 636.5Z"/></g></svg>