<svg viewBox="0 0 1000 1000" xmlns="http://www.w3.org/2000/svg"><defs><linearGradient id="c" gradientTransform="rotate(-45 .5 .5)"><stop offset="0%" stop-color="#FBDA61"/><stop offset="100%" stop-color="#FF5ACD"/></linearGradient><clipPath id="b"><path fill="currentColor" d="M806.5 611Q764 722 661 774.5T448 804q-110-23-192.5-104T134 486q-39-133 40-273t230-83q151 57 256.5 102t147 156.5Q849 500 806.5 611Z"/></clipPath><filter id="a" x="-50vw" y="-50vh" width="100vw" height="100vh"><feFlood flood-color="#fff" result="neutral-gray"/><feTurbulence type="fractalNoise" baseFrequency="2.5" numOctaves="100" stitchTiles="stitch" result="noise"/><feColorMatrix in="noise" type="saturate" values="0" result="destaturatedNoise"/><feComponentTransfer in="desaturatedNoise" result="theNoise"><feFuncA type="table" tableValues="0 0 0.3 0"/></feComponentTransfer><feBlend in="SourceGraphic" in2="theNoise" mode="soft-light" result="noisy-image"/></filter></defs><g filter="url(#a)" clip-path="url(#b)"><path fill="url(#c)" d="M806.5 611Q764 722 661 774.5T448 804q-110-23-192.5-104T134 486q-39-133 40-273t230-83q151 57 256.5 102t147 156.5Q849 500 806.5 611Z"/></g></svg>