<svg width="17" height="19" viewBox="0 0 17 19" fill="none" xmlns="http://www.w3.org/2000/svg">
<g clip-path="url(#clip0_67_5)">
<path d="M0.955566 8.39438C0.516113 8.83384 0.516113 9.54751 0.955566 9.98696L6.58057 15.612C7.02002 16.0514 7.73369 16.0514 8.17314 15.612C8.6126 15.1725 8.6126 14.4588 8.17314 14.0194L4.46416 10.3139H15.2501C15.8724 10.3139 16.3751 9.81118 16.3751 9.18892C16.3751 8.56665 15.8724 8.06392 15.2501 8.06392H4.46768L8.16963 4.35845C8.60908 3.91899 8.60908 3.20532 8.16963 2.76587C7.73018 2.32642 7.0165 2.32642 6.57705 2.76587L0.952051 8.39087L0.955566 8.39438Z" fill="#050404"/>
</g>
<defs>
<clipPath id="clip0_67_5">
<rect width="15.75" height="18" fill="white" transform="translate(0.625 0.188965)"/>
</clipPath>
</defs>
</svg>
