<svg width="31" height="32" viewBox="0 0 31 32" fill="none" xmlns="http://www.w3.org/2000/svg">
<g clip-path="url(#clip0_30_83)">
<path d="M12.0539 20.5438C12.0539 21.85 11.3721 23.9875 9.75827 23.9875C8.14444 23.9875 7.46263 21.85 7.46263 20.5438C7.46263 19.2375 8.14444 17.1 9.75827 17.1C11.3721 17.1 12.0539 19.2375 12.0539 20.5438ZM30.4378 17.3875C30.4378 19.3813 30.2376 21.4938 29.3431 23.325C26.9724 28.1125 20.4546 28 15.7882 28C11.0468 28 4.14115 28.1688 1.67663 23.325C0.763374 21.5125 0.413086 19.3813 0.413086 17.3875C0.413086 14.7688 1.28255 12.2938 3.00897 10.2875C2.6837 9.3 2.52732 8.2625 2.52732 7.2375C2.52732 5.89375 2.83383 5.21875 3.44058 4C6.27416 4 8.08815 4.5625 10.2462 6.25C12.0602 5.81875 13.9242 5.625 15.7945 5.625C17.4834 5.625 19.1848 5.80625 20.8236 6.2C22.9504 4.53125 24.7644 4 27.5667 4C28.1797 5.21875 28.4799 5.89375 28.4799 7.2375C28.4799 8.2625 28.3173 9.28125 27.9983 10.25C29.7184 12.275 30.4378 14.7688 30.4378 17.3875ZM26.4157 20.5438C26.4157 17.8 24.7456 15.3813 21.8182 15.3813C20.636 15.3813 19.5038 15.5938 18.3153 15.7563C17.3833 15.9 16.4513 15.9563 15.4942 15.9563C14.5435 15.9563 13.6114 15.9 12.6732 15.7563C11.5035 15.5938 10.3588 15.3813 9.17029 15.3813C6.24288 15.3813 4.57276 17.8 4.57276 20.5438C4.57276 26.0313 9.60189 26.875 13.9805 26.875H16.9955C21.3928 26.875 26.4157 26.0375 26.4157 20.5438ZM21.249 17.1C19.6351 17.1 18.9533 19.2375 18.9533 20.5438C18.9533 21.85 19.6351 23.9875 21.249 23.9875C22.8628 23.9875 23.5446 21.85 23.5446 20.5438C23.5446 19.2375 22.8628 17.1 21.249 17.1Z" fill="#121111"/>
</g>
<defs>
<clipPath id="clip0_30_83">
<rect width="30.0247" height="32" fill="white" transform="translate(0.413086)"/>
</clipPath>
</defs>
</svg>
