<svg width="29" height="32" viewBox="0 0 29 32" fill="none" xmlns="http://www.w3.org/2000/svg">
<g clip-path="url(#clip0_30_85)">
<path d="M14.444 8.81245C10.469 8.81245 7.26279 12.0187 7.26279 15.9937C7.26279 19.9687 10.469 23.1749 14.444 23.1749C18.419 23.1749 21.6253 19.9687 21.6253 15.9937C21.6253 12.0187 18.419 8.81245 14.444 8.81245ZM14.444 20.6625C11.8753 20.6625 9.77529 18.5687 9.77529 15.9937C9.77529 13.4187 11.869 11.325 14.444 11.325C17.019 11.325 19.1128 13.4187 19.1128 15.9937C19.1128 18.5687 17.0128 20.6625 14.444 20.6625ZM23.594 8.5187C23.594 9.44995 22.844 10.1937 21.919 10.1937C20.9878 10.1937 20.244 9.4437 20.244 8.5187C20.244 7.5937 20.994 6.8437 21.919 6.8437C22.844 6.8437 23.594 7.5937 23.594 8.5187ZM28.3503 10.2187C28.244 7.97495 27.7315 5.98745 26.0878 4.34995C24.4503 2.71245 22.4628 2.19995 20.219 2.08745C17.9065 1.9562 10.9753 1.9562 8.66279 2.08745C6.42529 2.1937 4.43779 2.7062 2.79404 4.3437C1.15029 5.9812 0.644043 7.9687 0.531543 10.2125C0.400293 12.525 0.400293 19.4562 0.531543 21.7687C0.637793 24.0124 1.15029 26 2.79404 27.6375C4.43779 29.275 6.41904 29.7875 8.66279 29.9C10.9753 30.0312 17.9065 30.0312 20.219 29.9C22.4628 29.7937 24.4503 29.2812 26.0878 27.6375C27.7253 26 28.2378 24.0124 28.3503 21.7687C28.4815 19.4562 28.4815 12.5312 28.3503 10.2187ZM25.3628 24.25C24.8753 25.475 23.9315 26.4187 22.7003 26.9125C20.8565 27.6437 16.4815 27.475 14.444 27.475C12.4065 27.475 8.02529 27.6375 6.18779 26.9125C4.96279 26.425 4.01904 25.4812 3.52529 24.25C2.79404 22.4062 2.96279 18.0312 2.96279 15.9937C2.96279 13.9562 2.80029 9.57495 3.52529 7.73745C4.01279 6.51245 4.95654 5.5687 6.18779 5.07495C8.03154 4.3437 12.4065 4.51245 14.444 4.51245C16.4815 4.51245 20.8628 4.34995 22.7003 5.07495C23.9253 5.56245 24.869 6.5062 25.3628 7.73745C26.094 9.5812 25.9253 13.9562 25.9253 15.9937C25.9253 18.0312 26.094 22.4125 25.3628 24.25Z" fill="#121111"/>
</g>
<defs>
<clipPath id="clip0_30_85">
<rect width="28" height="32" fill="white" transform="translate(0.437744)"/>
</clipPath>
</defs>
</svg>
