<svg width="33" height="32" viewBox="0 0 33 32" fill="none" xmlns="http://www.w3.org/2000/svg">
<g clip-path="url(#clip0_30_87)">
<path d="M29.1484 9.48225C29.1687 9.7665 29.1687 10.0508 29.1687 10.3351C29.1687 19.0051 22.5697 28.9949 10.5088 28.9949C6.79306 28.9949 3.34131 27.9188 0.437744 26.0508C0.965682 26.1117 1.47324 26.132 2.02149 26.132C5.08743 26.132 7.90981 25.0965 10.1636 23.33C7.28037 23.2691 4.86412 21.3808 4.03162 18.7818C4.43774 18.8426 4.84381 18.8833 5.27024 18.8833C5.85906 18.8833 6.44793 18.802 6.99612 18.6599C3.99106 18.0508 1.73718 15.4112 1.73718 12.2234V12.1422C2.61024 12.6295 3.62556 12.9341 4.70162 12.9746C2.93512 11.7969 1.77781 9.78681 1.77781 7.51269C1.77781 6.29444 2.10262 5.17769 2.67118 4.20306C5.89962 8.18275 10.7524 10.7817 16.194 11.066C16.0925 10.5787 16.0316 10.0711 16.0316 9.5635C16.0316 5.94925 18.9554 3.00513 22.5899 3.00513C24.4782 3.00513 26.1838 3.797 27.3818 5.07619C28.864 4.79194 30.2853 4.24369 31.5442 3.49244C31.0569 5.01531 30.0214 6.2945 28.661 7.10663C29.9808 6.96456 31.26 6.599 32.4376 6.09144C31.5444 7.39088 30.4276 8.54819 29.1484 9.48225Z" fill="#121111"/>
</g>
<defs>
<clipPath id="clip0_30_87">
<rect width="32" height="32" fill="white" transform="translate(0.437744)"/>
</clipPath>
</defs>
</svg>
