<svg id="visual" viewBox="0 0 1500 140" width="1500" height="140" xmlns="http://www.w3.org/2000/svg" xmlns:xlink="http://www.w3.org/1999/xlink" version="1.1"><path d="M0 92L41.7 82.2C83.3 72.3 166.7 52.7 250 56.5C333.3 60.3 416.7 87.7 500 98C583.3 108.3 666.7 101.7 750 84.2C833.3 66.7 916.7 38.3 1000 40.3C1083.3 42.3 1166.7 74.7 1250 95.8C1333.3 117 1416.7 127 1458.3 132L1500 137L1500 141L1458.3 141C1416.7 141 1333.3 141 1250 141C1166.7 141 1083.3 141 1000 141C916.7 141 833.3 141 750 141C666.7 141 583.3 141 500 141C416.7 141 333.3 141 250 141C166.7 141 83.3 141 41.7 141L0 141Z" fill="#0f0f0f" stroke-linecap="round" stroke-linejoin="miter"></path></svg>