<svg width="1800" height="144" viewBox="0 0 1800 144" fill="none" xmlns="http://www.w3.org/2000/svg">
<rect width="1800" height="144" fill="#F2F2F2"/>
<path fill-rule="evenodd" clip-rule="evenodd" d="M0 8.92365H49.5C100.5 8.92365 199.5 8.92365 300 31.4364C400.5 53.9491 499.5 98.9745 600 110.231C700.5 121.487 799.5 98.9745 900 72.7097C1000.5 46.4449 1099.5 16.4279 1200 5.17152C1300.5 -6.08484 1399.5 1.4194 1500 23.9321C1600.5 46.4449 1699.5 83.9661 1750.5 102.727L1800 121.487V144H1750.5C1699.5 144 1600.5 144 1500 144C1399.5 144 1300.5 144 1200 144C1099.5 144 1000.5 144 900 144C799.5 144 700.5 144 600 144C499.5 144 400.5 144 300 144C199.5 144 100.5 144 49.5 144H0V8.92365Z" fill="#050404"/>
</svg>
