<svg id="visual" viewBox="0 0 1500 140" width="1500" height="140" xmlns="http://www.w3.org/2000/svg" xmlns:xlink="http://www.w3.org/1999/xlink" version="1.1"><path d="M0 64L41.7 75.2C83.3 86.3 166.7 108.7 250 118.7C333.3 128.7 416.7 126.3 500 110C583.3 93.7 666.7 63.3 750 65.7C833.3 68 916.7 103 1000 107.7C1083.3 112.3 1166.7 86.7 1250 64.8C1333.3 43 1416.7 25 1458.3 16L1500 7L1500 141L1458.3 141C1416.7 141 1333.3 141 1250 141C1166.7 141 1083.3 141 1000 141C916.7 141 833.3 141 750 141C666.7 141 583.3 141 500 141C416.7 141 333.3 141 250 141C166.7 141 83.3 141 41.7 141L0 141Z" fill="#ffffff" stroke-linecap="round" stroke-linejoin="miter"></path></svg>