<svg id="visual" viewBox="0 0 1500 140" width="1500" height="140" xmlns="http://www.w3.org/2000/svg" xmlns:xlink="http://www.w3.org/1999/xlink" version="1.1"><path d="M0 20L41.7 37.8C83.3 55.7 166.7 91.3 250 107.7C333.3 124 416.7 121 500 101.7C583.3 82.3 666.7 46.7 750 38.5C833.3 30.3 916.7 49.7 1000 61.2C1083.3 72.7 1166.7 76.3 1250 73.2C1333.3 70 1416.7 60 1458.3 55L1500 50L1500 141L1458.3 141C1416.7 141 1333.3 141 1250 141C1166.7 141 1083.3 141 1000 141C916.7 141 833.3 141 750 141C666.7 141 583.3 141 500 141C416.7 141 333.3 141 250 141C166.7 141 83.3 141 41.7 141L0 141Z" fill="#0f0f0f" stroke-linecap="round" stroke-linejoin="miter"></path></svg>